<svg width="149" height="24" viewBox="0 0 149 24" fill="none" xmlns="http://www.w3.org/2000/svg">
<path d="M20.7478 11.4609C20.5695 10.593 20.149 8.69212 19.5246 6.76566C19.0264 5.22811 18.4988 3.99169 17.9565 3.0908C17.1435 1.73972 16.2276 1.05469 15.2344 1.05469C14.4362 1.05469 13.4513 1.53234 12.226 2.51363C11.5282 1.96753 10.1602 1.05469 8.8125 1.05469C7.14952 1.05469 5.77908 2.87602 4.49958 6.78661C3.87633 8.69147 3.45075 10.5712 3.26377 11.4609H0V13.3359H24V11.4609H20.7478ZM5.18236 11.4609C5.39044 10.5162 5.76886 8.93686 6.28167 7.36964C7.43072 3.85763 8.43961 2.92969 8.8125 2.92969C9.40059 2.92969 10.1901 3.35522 10.7996 3.78769C10.6933 3.89269 10.6302 3.95798 10.6221 3.96642L9.9713 4.64128L11.321 5.94281L11.9717 5.26795C11.9777 5.26181 12.5736 4.64578 13.3291 4.03261C14.6499 2.96062 15.1785 2.92969 15.2344 2.92969C15.6057 2.92969 16.6065 3.84905 17.736 7.32862C18.2515 8.91628 18.6285 10.5227 18.8309 11.4609H5.18236Z" fill="#C7D2E6"/>
<path d="M16.8281 14.6953C15.394 14.6953 14.1287 15.4312 13.3893 16.5449L11.8177 15.7591L10.1578 16.5688C9.42066 15.4417 8.14748 14.6953 6.70312 14.6953C4.42861 14.6953 2.57812 16.5458 2.57812 18.8203C2.57812 21.0948 4.42861 22.9453 6.70312 22.9453C8.97764 22.9453 10.8281 21.0948 10.8281 18.8203C10.8281 18.6584 10.8184 18.4987 10.8002 18.3416L11.8073 17.8503L12.7342 18.3137C12.7138 18.4798 12.7031 18.6488 12.7031 18.8203C12.7031 21.0948 14.5536 22.9453 16.8281 22.9453C19.1026 22.9453 20.9531 21.0948 20.9531 18.8203C20.9531 16.5458 19.1026 14.6953 16.8281 14.6953ZM6.70312 21.0703C5.46248 21.0703 4.45312 20.061 4.45312 18.8203C4.45312 17.5797 5.46248 16.5703 6.70312 16.5703C7.94377 16.5703 8.95312 17.5797 8.95312 18.8203C8.95312 20.061 7.94377 21.0703 6.70312 21.0703ZM16.8281 21.0703C15.5875 21.0703 14.5781 20.061 14.5781 18.8203C14.5781 17.5797 15.5875 16.5703 16.8281 16.5703C18.0688 16.5703 19.0781 17.5797 19.0781 18.8203C19.0781 20.061 18.0688 21.0703 16.8281 21.0703Z" fill="#C7D2E6"/>
<path d="M36.2588 11.7637L38.5488 7.04688H40.4629L37.127 13.3359V17H35.3906V13.3359L32.0479 7.04688H33.9688L36.2588 11.7637ZM40.6201 13.2334C40.6201 12.5088 40.7637 11.8571 41.0508 11.2783C41.3379 10.695 41.7412 10.2484 42.2607 9.93848C42.7803 9.62402 43.3773 9.4668 44.0518 9.4668C45.0498 9.4668 45.8587 9.78809 46.4785 10.4307C47.1029 11.0732 47.4401 11.9255 47.4902 12.9873L47.4971 13.377C47.4971 14.1061 47.3558 14.7578 47.0732 15.332C46.7952 15.9062 46.3942 16.3506 45.8701 16.665C45.3506 16.9795 44.749 17.1367 44.0654 17.1367C43.0218 17.1367 42.1855 16.7904 41.5566 16.0977C40.9323 15.4004 40.6201 14.473 40.6201 13.3154V13.2334ZM42.2812 13.377C42.2812 14.138 42.4385 14.735 42.7529 15.168C43.0674 15.5964 43.5049 15.8105 44.0654 15.8105C44.626 15.8105 45.0612 15.5918 45.3711 15.1543C45.6855 14.7168 45.8428 14.0765 45.8428 13.2334C45.8428 12.486 45.681 11.8936 45.3574 11.4561C45.0384 11.0186 44.6032 10.7998 44.0518 10.7998C43.5094 10.7998 43.0788 11.0163 42.7598 11.4492C42.4408 11.8776 42.2812 12.5202 42.2812 13.377ZM53.3828 16.2754C52.8952 16.8496 52.2025 17.1367 51.3047 17.1367C50.5026 17.1367 49.8942 16.902 49.4795 16.4326C49.0693 15.9632 48.8643 15.2842 48.8643 14.3955V9.60352H50.5254V14.375C50.5254 15.3138 50.915 15.7832 51.6943 15.7832C52.501 15.7832 53.0456 15.4938 53.3281 14.915V9.60352H54.9893V17H53.4238L53.3828 16.2754ZM57.6553 7.35449L57.4775 10.0273H56.3906V6.5H57.6553V7.35449ZM62.9189 11.1211C62.7002 11.0846 62.4746 11.0664 62.2422 11.0664C61.4811 11.0664 60.9684 11.3581 60.7041 11.9414V17H59.043V9.60352H60.6289L60.6699 10.4307C61.071 9.78809 61.627 9.4668 62.3379 9.4668C62.5749 9.4668 62.7708 9.4987 62.9258 9.5625L62.9189 11.1211ZM67.0889 17.1367C66.0361 17.1367 65.1816 16.8063 64.5254 16.1455C63.8737 15.4801 63.5479 14.596 63.5479 13.4932V13.2881C63.5479 12.5498 63.6891 11.8913 63.9717 11.3125C64.2588 10.7292 64.6598 10.2757 65.1748 9.95215C65.6898 9.62858 66.264 9.4668 66.8975 9.4668C67.9046 9.4668 68.6816 9.78809 69.2285 10.4307C69.7799 11.0732 70.0557 11.9824 70.0557 13.1582V13.8281H65.2227C65.2728 14.4388 65.4756 14.9219 65.8311 15.2773C66.1911 15.6328 66.6423 15.8105 67.1846 15.8105C67.9456 15.8105 68.5654 15.5029 69.0439 14.8877L69.9395 15.7422C69.6432 16.1842 69.2467 16.5283 68.75 16.7744C68.2578 17.016 67.7041 17.1367 67.0889 17.1367ZM66.8906 10.7998C66.4349 10.7998 66.0658 10.9593 65.7832 11.2783C65.5052 11.5973 65.3275 12.0417 65.25 12.6113H68.415V12.4883C68.3786 11.9323 68.2305 11.513 67.9707 11.2305C67.7109 10.9434 67.3509 10.7998 66.8906 10.7998ZM80.5693 14.6826H76.7139L75.9072 17H74.1094L77.8691 7.04688H79.4209L83.1875 17H81.3828L80.5693 14.6826ZM77.1992 13.2881H80.084L78.6416 9.15918L77.1992 13.2881ZM85.375 9.60352L85.4229 10.458C85.9697 9.7972 86.6875 9.4668 87.5762 9.4668C89.1165 9.4668 89.9004 10.3486 89.9277 12.1123V17H88.2666V12.208C88.2666 11.7386 88.1641 11.3923 87.959 11.1689C87.7585 10.9411 87.4281 10.8271 86.9678 10.8271C86.2979 10.8271 85.7988 11.1302 85.4707 11.7363V17H83.8096V9.60352H85.375ZM91.3154 13.2334C91.3154 12.5088 91.459 11.8571 91.7461 11.2783C92.0332 10.695 92.4365 10.2484 92.9561 9.93848C93.4756 9.62402 94.0726 9.4668 94.7471 9.4668C95.7451 9.4668 96.554 9.78809 97.1738 10.4307C97.7982 11.0732 98.1354 11.9255 98.1855 12.9873L98.1924 13.377C98.1924 14.1061 98.0511 14.7578 97.7686 15.332C97.4906 15.9062 97.0895 16.3506 96.5654 16.665C96.0459 16.9795 95.4443 17.1367 94.7607 17.1367C93.7171 17.1367 92.8809 16.7904 92.252 16.0977C91.6276 15.4004 91.3154 14.473 91.3154 13.3154V13.2334ZM92.9766 13.377C92.9766 14.138 93.1338 14.735 93.4482 15.168C93.7627 15.5964 94.2002 15.8105 94.7607 15.8105C95.3213 15.8105 95.7565 15.5918 96.0664 15.1543C96.3809 14.7168 96.5381 14.0765 96.5381 13.2334C96.5381 12.486 96.3763 11.8936 96.0527 11.4561C95.7337 11.0186 95.2985 10.7998 94.7471 10.7998C94.2048 10.7998 93.7741 11.0163 93.4551 11.4492C93.1361 11.8776 92.9766 12.5202 92.9766 13.377ZM101.139 9.60352L101.187 10.458C101.733 9.7972 102.451 9.4668 103.34 9.4668C104.88 9.4668 105.664 10.3486 105.691 12.1123V17H104.03V12.208C104.03 11.7386 103.928 11.3923 103.723 11.1689C103.522 10.9411 103.192 10.8271 102.731 10.8271C102.062 10.8271 101.562 11.1302 101.234 11.7363V17H99.5732V9.60352H101.139ZM109.978 14.6211L111.481 9.60352H113.252L110.312 18.1211C109.861 19.3652 109.096 19.9873 108.016 19.9873C107.774 19.9873 107.507 19.9463 107.216 19.8643V18.5791L107.53 18.5996C107.95 18.5996 108.264 18.5221 108.474 18.3672C108.688 18.2168 108.856 17.9616 108.979 17.6016L109.219 16.9658L106.621 9.60352H108.412L109.978 14.6211ZM115.774 9.60352L115.822 10.376C116.342 9.76986 117.053 9.4668 117.955 9.4668C118.944 9.4668 119.621 9.84505 119.985 10.6016C120.523 9.84505 121.28 9.4668 122.255 9.4668C123.071 9.4668 123.677 9.69238 124.073 10.1436C124.474 10.5947 124.679 11.2601 124.688 12.1396V17H123.027V12.1875C123.027 11.7181 122.925 11.374 122.72 11.1553C122.515 10.9365 122.175 10.8271 121.701 10.8271C121.323 10.8271 121.013 10.9297 120.771 11.1348C120.535 11.3353 120.368 11.5996 120.272 11.9277L120.279 17H118.618V12.1328C118.595 11.2624 118.151 10.8271 117.285 10.8271C116.62 10.8271 116.148 11.0983 115.87 11.6406V17H114.209V9.60352H115.774ZM126.083 13.2334C126.083 12.5088 126.227 11.8571 126.514 11.2783C126.801 10.695 127.204 10.2484 127.724 9.93848C128.243 9.62402 128.84 9.4668 129.515 9.4668C130.513 9.4668 131.322 9.78809 131.941 10.4307C132.566 11.0732 132.903 11.9255 132.953 12.9873L132.96 13.377C132.96 14.1061 132.819 14.7578 132.536 15.332C132.258 15.9062 131.857 16.3506 131.333 16.665C130.813 16.9795 130.212 17.1367 129.528 17.1367C128.485 17.1367 127.648 16.7904 127.02 16.0977C126.395 15.4004 126.083 14.473 126.083 13.3154V13.2334ZM127.744 13.377C127.744 14.138 127.901 14.735 128.216 15.168C128.53 15.5964 128.968 15.8105 129.528 15.8105C130.089 15.8105 130.524 15.5918 130.834 15.1543C131.148 14.7168 131.306 14.0765 131.306 13.2334C131.306 12.486 131.144 11.8936 130.82 11.4561C130.501 11.0186 130.066 10.7998 129.515 10.7998C128.972 10.7998 128.542 11.0163 128.223 11.4492C127.904 11.8776 127.744 12.5202 127.744 13.377ZM138.846 16.2754C138.358 16.8496 137.665 17.1367 136.768 17.1367C135.965 17.1367 135.357 16.902 134.942 16.4326C134.532 15.9632 134.327 15.2842 134.327 14.3955V9.60352H135.988V14.375C135.988 15.3138 136.378 15.7832 137.157 15.7832C137.964 15.7832 138.508 15.4938 138.791 14.915V9.60352H140.452V17H138.887L138.846 16.2754ZM146.29 14.9902C146.29 14.694 146.167 14.4684 145.921 14.3135C145.679 14.1585 145.276 14.0218 144.711 13.9033C144.146 13.7848 143.674 13.6344 143.296 13.4521C142.466 13.0511 142.052 12.4701 142.052 11.709C142.052 11.071 142.321 10.5378 142.858 10.1094C143.396 9.68099 144.08 9.4668 144.909 9.4668C145.793 9.4668 146.507 9.68555 147.049 10.123C147.596 10.5605 147.869 11.1279 147.869 11.8252H146.208C146.208 11.5062 146.09 11.2419 145.853 11.0322C145.616 10.818 145.301 10.7109 144.909 10.7109C144.545 10.7109 144.246 10.7952 144.014 10.9639C143.786 11.1325 143.672 11.3581 143.672 11.6406C143.672 11.8958 143.779 12.0941 143.993 12.2354C144.207 12.3766 144.64 12.5202 145.292 12.666C145.944 12.8073 146.454 12.9782 146.823 13.1787C147.197 13.3747 147.473 13.6117 147.65 13.8896C147.833 14.1676 147.924 14.5049 147.924 14.9014C147.924 15.5667 147.648 16.1068 147.097 16.5215C146.545 16.9316 145.823 17.1367 144.93 17.1367C144.324 17.1367 143.784 17.0273 143.31 16.8086C142.836 16.5898 142.466 16.2891 142.202 15.9062C141.938 15.5234 141.806 15.111 141.806 14.6689H143.419C143.442 15.0609 143.59 15.3639 143.863 15.5781C144.137 15.7878 144.499 15.8926 144.95 15.8926C145.388 15.8926 145.72 15.8105 145.948 15.6465C146.176 15.4779 146.29 15.2591 146.29 14.9902Z" fill="#B3B7C2"/>
</svg>
