<svg width="24" height="24" viewBox="0 0 24 24" fill="none" xmlns="http://www.w3.org/2000/svg">
<path d="M14.4 21.6C14.4 22.2365 14.1472 22.847 13.6971 23.2971C13.247 23.7471 12.6365 24 12 24C11.3635 24 10.753 23.7471 10.303 23.2971C9.85287 22.847 9.60001 22.2365 9.60001 21.6H14.4ZM12 0C12.3183 0 12.6235 0.126428 12.8485 0.351472C13.0736 0.576515 13.2 0.88174 13.2 1.2V2.496C16.608 3.072 19.2 6.036 19.2 9.6V16.8L22.8 20.4H1.20001L4.80001 16.8V9.6C4.80001 6.036 7.39201 3.072 10.8 2.496V1.2C10.8 0.88174 10.9264 0.576515 11.1515 0.351472C11.3765 0.126428 11.6818 0 12 0Z" fill="#C7D2E6"/>
</svg>
