<svg width="190" height="29" viewBox="0 0 190 29" fill="none" xmlns="http://www.w3.org/2000/svg">
<g filter="url(#filter0_d)">
<path d="M126.048 4.15588C127.83 4.15588 129.232 4.57807 130.255 5.42244C131.277 6.26681 131.788 7.42944 131.788 8.91034C131.788 10.3912 131.277 11.5539 130.255 12.3982C129.232 13.2426 127.83 13.6648 126.048 13.6648H122.647V17.7957H120.681V4.15588H126.048ZM125.989 11.9696C127.234 11.9696 128.184 11.7098 128.839 11.1901C129.494 10.6575 129.822 9.8976 129.822 8.91034C129.822 7.92308 129.494 7.16964 128.839 6.65002C128.184 6.11742 127.234 5.85112 125.989 5.85112H122.647V11.9696H125.989Z" fill="white"/>
<path d="M140.416 17.9516C138.581 17.9516 137.152 17.432 136.13 16.3928C135.108 15.3535 134.597 13.8597 134.597 11.9111V4.15588H136.562V11.8332C136.562 14.756 137.853 16.2174 140.435 16.2174C141.693 16.2174 142.657 15.8602 143.325 15.1457C143.994 14.4182 144.328 13.3141 144.328 11.8332V4.15588H146.235V11.9111C146.235 13.8726 145.724 15.373 144.701 16.4122C143.679 17.4385 142.25 17.9516 140.416 17.9516Z" fill="white"/>
<path d="M150.265 4.15588H152.231V16.1005H159.682V17.7957H150.265V4.15588Z" fill="white"/>
<path d="M165.814 17.9516C164.778 17.9516 163.776 17.7957 162.806 17.4839C161.849 17.1592 161.095 16.7435 160.545 16.2369L161.272 14.717C161.797 15.1847 162.465 15.5679 163.278 15.8667C164.103 16.1524 164.949 16.2953 165.814 16.2953C166.954 16.2953 167.806 16.107 168.369 15.7303C168.933 15.3405 169.215 14.8274 169.215 14.1909C169.215 13.7233 169.057 13.3465 168.743 13.0607C168.441 12.762 168.061 12.5346 167.603 12.3788C167.157 12.2229 166.521 12.0475 165.696 11.8526C164.66 11.6058 163.822 11.359 163.179 11.1122C162.55 10.8654 162.006 10.4887 161.548 9.98204C161.102 9.46243 160.879 8.76745 160.879 7.89709C160.879 7.16964 161.069 6.51363 161.449 5.92906C161.843 5.3445 162.432 4.87685 163.219 4.52611C164.005 4.17537 164.981 4 166.148 4C166.96 4 167.76 4.10392 168.546 4.31177C169.333 4.51961 170.008 4.81839 170.571 5.2081L169.922 6.76694C169.346 6.40321 168.73 6.13041 168.074 5.94855C167.419 5.75369 166.777 5.65627 166.148 5.65627C165.034 5.65627 164.195 5.85761 163.631 6.26031C163.081 6.66301 162.806 7.18263 162.806 7.81915C162.806 8.2868 162.963 8.67002 163.278 8.9688C163.592 9.25458 163.979 9.48191 164.438 9.65079C164.909 9.80667 165.545 9.97555 166.344 10.1574C167.38 10.4042 168.212 10.651 168.841 10.8979C169.47 11.1447 170.008 11.5214 170.453 12.028C170.912 12.5346 171.141 13.2166 171.141 14.074C171.141 14.7885 170.945 15.4445 170.551 16.042C170.158 16.6266 169.562 17.0942 168.762 17.445C167.963 17.7827 166.98 17.9516 165.814 17.9516Z" fill="white"/>
<path d="M184 16.1005V17.7957H174.013V4.15588H183.725V5.85112H175.979V10.0405H182.879V11.6968H175.979V16.1005H184Z" fill="white"/>
<path d="M43.7939 16.1005V17.7957H33.8071V4.15588H43.5187V5.85112H35.773V10.0405H42.6733V11.6968H35.773V16.1005H43.7939Z" fill="white"/>
<path d="M58.8118 4.15588V17.7957H57.1997L48.943 7.6243V17.7957H46.9771V4.15588H48.5891L56.8459 14.3273V4.15588H58.8118Z" fill="white"/>
<path d="M72.4654 10.8979H74.3526V16.2174C73.6711 16.776 72.8782 17.2047 71.9739 17.5034C71.0696 17.8022 70.126 17.9516 69.143 17.9516C67.7538 17.9516 66.5022 17.6528 65.3882 17.0553C64.2742 16.4447 63.3961 15.6133 62.7539 14.5611C62.1248 13.4959 61.8102 12.3008 61.8102 10.9758C61.8102 9.65079 62.1248 8.45568 62.7539 7.39047C63.3961 6.32527 64.2742 5.49389 65.3882 4.89633C66.5153 4.29878 67.78 4 69.1823 4C70.2832 4 71.2793 4.18186 72.1705 4.54559C73.0748 4.89633 73.8415 5.41594 74.4706 6.10443L73.2517 7.31253C72.1508 6.26031 70.8206 5.73421 69.261 5.73421C68.2125 5.73421 67.2689 5.96154 66.4301 6.4162C65.6044 6.85787 64.9557 7.48141 64.4839 8.2868C64.012 9.07921 63.7761 9.97555 63.7761 10.9758C63.7761 11.9631 64.012 12.8594 64.4839 13.6648C64.9557 14.4572 65.6044 15.0807 66.4301 15.5354C67.2689 15.9901 68.2059 16.2174 69.2413 16.2174C70.4733 16.2174 71.548 15.9251 72.4654 15.3405V10.8979Z" fill="white"/>
<path d="M86.8845 14.3858H79.5713L78.0576 17.7957H76.0327L82.2646 4.15588H84.2108L90.4624 17.7957H88.3982L86.8845 14.3858ZM86.1964 12.8269L83.2279 6.1434L80.2594 12.8269H86.1964Z" fill="white"/>
<path d="M101.858 10.8979H103.745V16.2174C103.064 16.776 102.271 17.2047 101.366 17.5034C100.462 17.8022 99.5184 17.9516 98.5355 17.9516C97.1462 17.9516 95.8946 17.6528 94.7806 17.0553C93.6666 16.4447 92.7885 15.6133 92.1463 14.5611C91.5172 13.4959 91.2027 12.3008 91.2027 10.9758C91.2027 9.65079 91.5172 8.45568 92.1463 7.39047C92.7885 6.32527 93.6666 5.49389 94.7806 4.89633C95.9077 4.29878 97.1724 4 98.5748 4C99.6757 4 100.672 4.18186 101.563 4.54559C102.467 4.89633 103.234 5.41594 103.863 6.10443L102.644 7.31253C101.543 6.26031 100.213 5.73421 98.6534 5.73421C97.6049 5.73421 96.6613 5.96154 95.8225 6.4162C94.9968 6.85787 94.3481 7.48141 93.8763 8.2868C93.4045 9.07921 93.1686 9.97555 93.1686 10.9758C93.1686 11.9631 93.4045 12.8594 93.8763 13.6648C94.3481 14.4572 94.9968 15.0807 95.8225 15.5354C96.6613 15.9901 97.5984 16.2174 98.6338 16.2174C99.8657 16.2174 100.94 15.9251 101.858 15.3405V10.8979Z" fill="white"/>
<path d="M117.496 16.1005V17.7957H107.509V4.15588H117.221V5.85112H109.475V10.0405H116.375V11.6968H109.475V16.1005H117.496Z" fill="white"/>
<path d="M12.9113 11.8136C12.3749 11.8924 11.8687 11.5674 11.7806 11.0878C11.7625 10.989 11.7635 10.8913 11.7812 10.7977L13.1293 7.4214C13.2245 7.09501 13.5263 6.83281 13.9225 6.77462C14.3814 6.70723 14.8182 6.93529 14.99 7.30288L16.9568 11.9935L17.8463 10.0068C17.9798 9.75422 18.2453 9.56255 18.577 9.51384L21.5169 9.0821C22.0532 9.00333 22.5595 9.32828 22.6476 9.80789C22.7357 10.2875 22.3722 10.7402 21.8359 10.8189L19.4735 11.1659L17.7491 14.8419C17.608 15.0682 17.3569 15.2369 17.0487 15.2822C16.5568 15.3544 16.0903 15.0872 15.9483 14.6725L14.132 10.263L13.6719 11.2581C13.5511 11.5412 13.2699 11.761 12.9113 11.8136Z" fill="white"/>
<path d="M23.9428 4.23465C24.8275 4.23465 25.5448 4.94197 25.5448 5.81449V16.2414C25.5448 17.114 24.8275 17.8213 23.9428 17.8213H18.1758C17.9792 17.8214 17.7906 17.9178 17.665 18.0859L15.6806 20.7428C15.4707 21.0238 15.0696 21.0838 14.7846 20.8768L14.5267 20.6895C14.2417 20.4825 14.1809 20.0869 14.3908 19.8059L16.8609 16.4986C16.9864 16.3306 17.1804 16.2416 17.377 16.2414H23.302C23.6559 16.2414 23.9428 15.9585 23.9428 15.6095V6.44643C23.9428 6.09742 23.6559 5.81449 23.302 5.81449H16.5738C16.2199 5.81449 15.9331 5.53156 15.9331 5.18255V4.86659C15.9331 4.51758 16.2199 4.23465 16.5738 4.23465H23.9428Z" fill="white"/>
<path d="M10.8059 10.8704V11.1863C10.8059 11.5353 10.519 11.8183 10.1651 11.8183H7.60195V15.6099C7.60195 15.9589 7.88884 16.2418 8.24273 16.2418H13.6894C14.0433 16.2418 14.3301 16.5248 14.3301 16.8738V17.1897C14.3301 17.5387 14.0433 17.8217 13.6894 17.8217H7.60195C6.71722 17.8217 6 17.1144 6 16.2418V5.81489C6 4.94236 6.71722 4.23505 7.60195 4.23505H13.6894C14.0433 4.23505 14.3301 4.51797 14.3301 4.86698V5.18295C14.3301 5.53196 14.0433 5.81489 13.6894 5.81489H8.24273C7.88884 5.81489 7.60195 6.09781 7.60195 6.44682V10.2384H10.1651C10.519 10.2384 10.8059 10.5214 10.8059 10.8704Z" fill="white"/>
</g>
<defs>
<filter id="filter0_d" x="0" y="0" width="190" height="29" filterUnits="userSpaceOnUse" color-interpolation-filters="sRGB">
<feFlood flood-opacity="0" result="BackgroundImageFix"/>
<feColorMatrix in="SourceAlpha" type="matrix" values="0 0 0 0 0 0 0 0 0 0 0 0 0 0 0 0 0 0 127 0"/>
<feOffset dy="2"/>
<feGaussianBlur stdDeviation="3"/>
<feColorMatrix type="matrix" values="0 0 0 0 0 0 0 0 0 0 0 0 0 0 0 0 0 0 0.5 0"/>
<feBlend mode="normal" in2="BackgroundImageFix" result="effect1_dropShadow"/>
<feBlend mode="normal" in="SourceGraphic" in2="effect1_dropShadow" result="shape"/>
</filter>
</defs>
</svg>
