<svg width="136" height="32" viewBox="0 0 136 32" fill="none" xmlns="http://www.w3.org/2000/svg">
<path d="M91.7216 18.1192C93.0835 18.1192 94.1549 18.4421 94.936 19.0877C95.717 19.7334 96.1076 20.6225 96.1076 21.755C96.1076 22.8874 95.717 23.7765 94.936 24.4222C94.1549 25.0679 93.0835 25.3907 91.7216 25.3907H89.1231V28.5497H87.6211V18.1192H91.7216ZM91.6766 24.0944C92.6279 24.0944 93.3539 23.8957 93.8545 23.4983C94.3552 23.0911 94.6055 22.5099 94.6055 21.755C94.6055 21 94.3552 20.4238 93.8545 20.0265C93.3539 19.6192 92.6279 19.4156 91.6766 19.4156H89.1231V24.0944H91.6766Z" fill="#FFC100"/>
<path d="M102.7 28.6689C101.298 28.6689 100.206 28.2715 99.4251 27.4768C98.644 26.6821 98.2535 25.5397 98.2535 24.0497V18.1192H99.7555V23.9901C99.7555 26.2252 100.742 27.3427 102.715 27.3427C103.676 27.3427 104.412 27.0695 104.923 26.5232C105.433 25.9669 105.689 25.1225 105.689 23.9901V18.1192H107.146V24.0497C107.146 25.5497 106.755 26.697 105.974 27.4917C105.193 28.2765 104.101 28.6689 102.7 28.6689Z" fill="#FFC100"/>
<path d="M110.225 18.1192H111.727V27.2533H117.42V28.5497H110.225V18.1192Z" fill="#FFC100"/>
<path d="M122.105 28.6689C121.314 28.6689 120.548 28.5497 119.807 28.3113C119.076 28.0629 118.5 27.745 118.079 27.3576L118.635 26.1954C119.036 26.553 119.546 26.846 120.167 27.0745C120.798 27.293 121.444 27.4023 122.105 27.4023C122.976 27.4023 123.627 27.2583 124.057 26.9702C124.488 26.6722 124.703 26.2798 124.703 25.793C124.703 25.4354 124.583 25.1473 124.343 24.9288C124.112 24.7003 123.822 24.5265 123.472 24.4073C123.131 24.2881 122.645 24.154 122.015 24.005C121.224 23.8162 120.583 23.6275 120.092 23.4387C119.611 23.25 119.196 22.9619 118.845 22.5745C118.505 22.1772 118.335 21.6457 118.335 20.9801C118.335 20.4238 118.48 19.9222 118.77 19.4752C119.071 19.0281 119.521 18.6705 120.122 18.4023C120.723 18.1341 121.469 18 122.36 18C122.981 18 123.592 18.0795 124.193 18.2384C124.793 18.3974 125.309 18.6258 125.74 18.9238L125.244 20.1159C124.803 19.8377 124.333 19.6291 123.832 19.4901C123.331 19.3411 122.841 19.2666 122.36 19.2666C121.509 19.2666 120.868 19.4205 120.437 19.7285C120.017 20.0364 119.807 20.4338 119.807 20.9205C119.807 21.2781 119.927 21.5712 120.167 21.7997C120.407 22.0182 120.703 22.1921 121.053 22.3212C121.414 22.4404 121.899 22.5695 122.51 22.7086C123.301 22.8973 123.937 23.0861 124.418 23.2748C124.898 23.4636 125.309 23.7517 125.65 24.1391C126 24.5265 126.175 25.048 126.175 25.7036C126.175 26.25 126.025 26.7517 125.725 27.2086C125.424 27.6556 124.969 28.0132 124.358 28.2815C123.747 28.5397 122.996 28.6689 122.105 28.6689Z" fill="#FFC100"/>
<path d="M136 27.2533V28.5497H128.37V18.1192H135.79V19.4156H129.872V22.6192H135.144V23.8858H129.872V27.2533H136Z" fill="#FFC100"/>
<path d="M28.8759 27.2533V28.5497H21.2456V18.1192H28.6656V19.4156H22.7476V22.6192H28.0198V23.8858H22.7476V27.2533H28.8759Z" fill="white"/>
<path d="M40.3503 18.1192V28.5497H39.1186L32.8101 20.7715V28.5497H31.308V18.1192H32.5397L38.8483 25.8973V18.1192H40.3503Z" fill="white"/>
<path d="M50.7822 23.2748H52.2242V27.3427C51.7035 27.7699 51.0977 28.0977 50.4067 28.3262C49.7158 28.5546 48.9948 28.6689 48.2438 28.6689C47.1824 28.6689 46.2261 28.4404 45.3749 27.9834C44.5238 27.5166 43.8529 26.8808 43.3622 26.0762C42.8816 25.2616 42.6412 24.3477 42.6412 23.3344C42.6412 22.3212 42.8816 21.4073 43.3622 20.5927C43.8529 19.7781 44.5238 19.1424 45.3749 18.6854C46.2361 18.2285 47.2024 18 48.2739 18C49.115 18 49.876 18.1391 50.5569 18.4172C51.2479 18.6854 51.8337 19.0828 52.3143 19.6093L51.3831 20.5331C50.5419 19.7285 49.5255 19.3262 48.3339 19.3262C47.5329 19.3262 46.8119 19.5 46.171 19.8477C45.5402 20.1854 45.0445 20.6623 44.684 21.2781C44.3235 21.8841 44.1433 22.5695 44.1433 23.3344C44.1433 24.0894 44.3235 24.7748 44.684 25.3907C45.0445 25.9967 45.5402 26.4735 46.171 26.8212C46.8119 27.1689 47.5278 27.3427 48.3189 27.3427C49.2602 27.3427 50.0813 27.1192 50.7822 26.6722V23.2748Z" fill="white"/>
<path d="M61.7991 25.942H56.2115L55.0549 28.5497H53.5079L58.2693 18.1192H59.7563L64.5328 28.5497H62.9556L61.7991 25.942ZM61.2734 24.75L59.0053 19.6391L56.7372 24.75H61.2734Z" fill="white"/>
<path d="M73.2394 23.2748H74.6813V27.3427C74.1606 27.7699 73.5548 28.0977 72.8639 28.3262C72.173 28.5546 71.452 28.6689 70.701 28.6689C69.6395 28.6689 68.6832 28.4404 67.8321 27.9834C66.9809 27.5166 66.31 26.8808 65.8194 26.0762C65.3387 25.2616 65.0984 24.3477 65.0984 23.3344C65.0984 22.3212 65.3387 21.4073 65.8194 20.5927C66.31 19.7781 66.9809 19.1424 67.8321 18.6854C68.6932 18.2285 69.6596 18 70.731 18C71.5721 18 72.3332 18.1391 73.0141 18.4172C73.705 18.6854 74.2908 19.0828 74.7715 19.6093L73.8402 20.5331C72.9991 19.7285 71.9827 19.3262 70.7911 19.3262C69.99 19.3262 69.269 19.5 68.6281 19.8477C67.9973 20.1854 67.5016 20.6623 67.1411 21.2781C66.7807 21.8841 66.6004 22.5695 66.6004 23.3344C66.6004 24.0894 66.7807 24.7748 67.1411 25.3907C67.5016 25.9967 67.9973 26.4735 68.6281 26.8212C69.269 27.1689 69.985 27.3427 70.7761 27.3427C71.7173 27.3427 72.5384 27.1192 73.2394 26.6722V23.2748Z" fill="white"/>
<path d="M85.1875 27.2533V28.5497H77.5571V18.1192H84.9772V19.4156H79.0592V22.6192H84.3313V23.8858H79.0592V27.2533H85.1875Z" fill="white"/>
<path d="M5.28071 23.9747C4.87089 24.0349 4.4841 23.7864 4.41679 23.4196C4.40292 23.344 4.4037 23.2693 4.41728 23.1978L5.44725 20.6159C5.51997 20.3663 5.75059 20.1658 6.05332 20.1213C6.4039 20.0698 6.73762 20.2442 6.86891 20.5253L8.37162 24.1122L9.05122 22.593C9.15325 22.3998 9.35613 22.2533 9.60954 22.216L11.8557 21.8858C12.2655 21.8256 12.6523 22.0741 12.7196 22.4409C12.7869 22.8076 12.5093 23.1538 12.0995 23.214L10.2945 23.4793L8.977 26.2904C8.86916 26.4635 8.67731 26.5925 8.44182 26.6271C8.06602 26.6824 7.70957 26.478 7.6011 26.1608L6.21334 22.7889L5.86182 23.5498C5.76954 23.7664 5.55465 23.9344 5.28071 23.9747Z" fill="#FFC100"/>
<path d="M13.709 18.1792C14.385 18.1792 14.933 18.7201 14.933 19.3873V27.3609C14.933 28.0281 14.385 28.569 13.709 28.569H9.30278C9.15259 28.5691 9.00845 28.6428 8.91254 28.7713L7.39634 30.8031C7.23598 31.018 6.92949 31.0639 6.71179 30.9056L6.51469 30.7623C6.29699 30.604 6.2505 30.3015 6.41085 30.0866L8.29816 27.5575C8.39407 27.429 8.54225 27.3609 8.69244 27.3609H13.2195C13.4899 27.3609 13.709 27.1445 13.709 26.8776V19.8706C13.709 19.6037 13.4899 19.3873 13.2195 19.3873H8.07882C7.80843 19.3873 7.58924 19.171 7.58924 18.9041V18.6624C7.58924 18.3956 7.80843 18.1792 8.07882 18.1792H13.709Z" fill="#FFC100"/>
<path d="M3.67189 23.2538V23.4954C3.67189 23.7623 3.45269 23.9786 3.1823 23.9786H1.22396V26.8781C1.22396 27.145 1.44316 27.3613 1.71355 27.3613H5.87502C6.14541 27.3613 6.36461 27.5777 6.36461 27.8446V28.0862C6.36461 28.3531 6.14541 28.5695 5.87502 28.5695H1.22396C0.547987 28.5695 0 28.0286 0 27.3613V19.3878C0 18.7206 0.547987 18.1797 1.22396 18.1797H5.87502C6.14541 18.1797 6.36461 18.396 6.36461 18.6629V18.9046C6.36461 19.1714 6.14541 19.3878 5.87502 19.3878H1.71355C1.44316 19.3878 1.22396 19.6042 1.22396 19.871V22.7705H3.1823C3.45269 22.7705 3.67189 22.9869 3.67189 23.2538Z" fill="white"/>
<path d="M1.456 13.66C1.36267 13.66 1.288 13.632 1.232 13.576C1.176 13.52 1.148 13.4453 1.148 13.352V4.028C1.148 3.93467 1.176 3.86 1.232 3.804C1.288 3.748 1.36267 3.72 1.456 3.72H1.694C1.78733 3.72 1.862 3.748 1.918 3.804C1.974 3.86 2.002 3.93467 2.002 4.028V4.686C2.54333 3.94867 3.32733 3.58 4.354 3.58C5.362 3.58 6.104 3.902 6.58 4.546C7.06533 5.18067 7.322 5.96467 7.35 6.898C7.35933 6.99133 7.364 7.14533 7.364 7.36C7.364 7.57467 7.35933 7.72867 7.35 7.822C7.322 8.75533 7.06533 9.544 6.58 10.188C6.104 10.8227 5.362 11.14 4.354 11.14C3.33667 11.14 2.55267 10.7713 2.002 10.034V13.352C2.002 13.4453 1.974 13.52 1.918 13.576C1.862 13.632 1.78733 13.66 1.694 13.66H1.456ZM4.27 10.328C5.026 10.328 5.57667 10.09 5.922 9.614C6.27667 9.12867 6.468 8.508 6.496 7.752C6.50533 7.65867 6.51 7.528 6.51 7.36C6.51 6.492 6.342 5.78267 6.006 5.232C5.67 4.672 5.09133 4.392 4.27 4.392C3.53267 4.392 2.97733 4.63933 2.604 5.134C2.23067 5.61933 2.03 6.19333 2.002 6.856L1.988 7.402L2.002 7.948C2.01133 8.34933 2.1 8.732 2.268 9.096C2.436 9.45067 2.688 9.74467 3.024 9.978C3.36 10.2113 3.77533 10.328 4.27 10.328ZM12.0408 11.14C11.0701 11.14 10.3141 10.846 9.77277 10.258C9.24077 9.66067 8.96077 8.89067 8.93277 7.948L8.91877 7.36L8.93277 6.772C8.96077 5.82933 9.24077 5.064 9.77277 4.476C10.3141 3.87867 11.0701 3.58 12.0408 3.58C13.0114 3.58 13.7628 3.87867 14.2948 4.476C14.8361 5.064 15.1208 5.82933 15.1488 6.772C15.1581 6.86533 15.1628 7.06133 15.1628 7.36C15.1628 7.65867 15.1581 7.85467 15.1488 7.948C15.1208 8.89067 14.8361 9.66067 14.2948 10.258C13.7628 10.846 13.0114 11.14 12.0408 11.14ZM12.0408 10.328C12.7034 10.328 13.2354 10.118 13.6368 9.698C14.0474 9.26867 14.2668 8.662 14.2948 7.878C14.3041 7.78467 14.3088 7.612 14.3088 7.36C14.3088 7.108 14.3041 6.93533 14.2948 6.842C14.2668 6.058 14.0474 5.456 13.6368 5.036C13.2354 4.60667 12.7034 4.392 12.0408 4.392C11.3781 4.392 10.8414 4.60667 10.4308 5.036C10.0294 5.456 9.81477 6.058 9.78677 6.842L9.77277 7.36L9.78677 7.878C9.81477 8.662 10.0294 9.26867 10.4308 9.698C10.8414 10.118 11.3781 10.328 12.0408 10.328ZM18.7877 11C18.6663 11 18.573 10.972 18.5077 10.916C18.4423 10.86 18.3863 10.7713 18.3397 10.65L16.3657 4.154L16.3377 4C16.3377 3.92533 16.3657 3.86 16.4217 3.804C16.4777 3.748 16.543 3.72 16.6177 3.72H16.8837C16.9677 3.72 17.0377 3.74333 17.0937 3.79C17.1497 3.83667 17.1823 3.88333 17.1917 3.93L18.9137 9.754L20.7477 4C20.7663 3.92533 20.8083 3.86 20.8737 3.804C20.939 3.748 21.023 3.72 21.1257 3.72H21.4057C21.5083 3.72 21.5923 3.748 21.6577 3.804C21.723 3.86 21.765 3.92533 21.7837 4L23.6177 9.754L25.3397 3.93C25.349 3.88333 25.3817 3.83667 25.4377 3.79C25.4937 3.74333 25.5637 3.72 25.6477 3.72H25.9137C25.9883 3.72 26.0537 3.748 26.1097 3.804C26.1657 3.86 26.1937 3.92533 26.1937 4L26.1657 4.154L24.1917 10.65C24.145 10.7713 24.089 10.86 24.0237 10.916C23.9583 10.972 23.865 11 23.7437 11H23.5057C23.2537 11 23.095 10.8833 23.0297 10.65L21.2657 5.134L19.5017 10.65C19.4363 10.8833 19.2777 11 19.0257 11H18.7877ZM30.4278 11.14C29.5411 11.14 28.8271 10.8507 28.2858 10.272C27.7445 9.684 27.4365 8.9 27.3618 7.92L27.3478 7.36L27.3618 6.8C27.4365 5.82933 27.7398 5.05 28.2718 4.462C28.8131 3.874 29.5318 3.58 30.4278 3.58C31.3985 3.58 32.1545 3.902 32.6958 4.546C33.2465 5.19 33.5218 6.072 33.5218 7.192V7.402C33.5218 7.49533 33.4891 7.57 33.4238 7.626C33.3678 7.682 33.2931 7.71 33.1998 7.71H28.2158V7.85C28.2345 8.28867 28.3325 8.69933 28.5098 9.082C28.6965 9.45533 28.9531 9.75867 29.2798 9.992C29.6065 10.216 29.9891 10.328 30.4278 10.328C30.9411 10.328 31.3565 10.23 31.6738 10.034C32.0005 9.82867 32.2338 9.62333 32.3738 9.418C32.4578 9.306 32.5185 9.236 32.5558 9.208C32.6025 9.18 32.6818 9.166 32.7938 9.166H33.0178C33.1018 9.166 33.1718 9.18933 33.2278 9.236C33.2838 9.28267 33.3118 9.34333 33.3118 9.418C33.3118 9.614 33.1858 9.852 32.9338 10.132C32.6911 10.4027 32.3505 10.6407 31.9118 10.846C31.4731 11.042 30.9785 11.14 30.4278 11.14ZM32.6678 6.926V6.87C32.6678 6.15133 32.4625 5.55867 32.0518 5.092C31.6505 4.62533 31.1091 4.392 30.4278 4.392C29.7465 4.392 29.2051 4.62533 28.8038 5.092C28.4118 5.55867 28.2158 6.15133 28.2158 6.87V6.926H32.6678ZM35.6764 11C35.583 11 35.5084 10.972 35.4524 10.916C35.3964 10.86 35.3684 10.7853 35.3684 10.692V4.042C35.3684 3.94867 35.3964 3.874 35.4524 3.818C35.5084 3.75267 35.583 3.72 35.6764 3.72H35.9004C35.9937 3.72 36.0684 3.75267 36.1244 3.818C36.1897 3.874 36.2224 3.94867 36.2224 4.042V4.686C36.5584 4.042 37.193 3.72 38.1264 3.72H38.6444C38.7377 3.72 38.8124 3.748 38.8684 3.804C38.9244 3.86 38.9524 3.93467 38.9524 4.028V4.224C38.9524 4.31733 38.9244 4.392 38.8684 4.448C38.8124 4.504 38.7377 4.532 38.6444 4.532H38.0424C37.4824 4.532 37.039 4.69533 36.7124 5.022C36.3857 5.34867 36.2224 5.792 36.2224 6.352V10.692C36.2224 10.7853 36.1897 10.86 36.1244 10.916C36.0684 10.972 35.9937 11 35.9004 11H35.6764ZM42.7735 11.14C41.8868 11.14 41.1728 10.8507 40.6315 10.272C40.0902 9.684 39.7822 8.9 39.7075 7.92L39.6935 7.36L39.7075 6.8C39.7822 5.82933 40.0855 5.05 40.6175 4.462C41.1588 3.874 41.8775 3.58 42.7735 3.58C43.7442 3.58 44.5002 3.902 45.0415 4.546C45.5922 5.19 45.8675 6.072 45.8675 7.192V7.402C45.8675 7.49533 45.8348 7.57 45.7695 7.626C45.7135 7.682 45.6388 7.71 45.5455 7.71H40.5615V7.85C40.5802 8.28867 40.6782 8.69933 40.8555 9.082C41.0422 9.45533 41.2988 9.75867 41.6255 9.992C41.9522 10.216 42.3348 10.328 42.7735 10.328C43.2868 10.328 43.7022 10.23 44.0195 10.034C44.3462 9.82867 44.5795 9.62333 44.7195 9.418C44.8035 9.306 44.8642 9.236 44.9015 9.208C44.9482 9.18 45.0275 9.166 45.1395 9.166H45.3635C45.4475 9.166 45.5175 9.18933 45.5735 9.236C45.6295 9.28267 45.6575 9.34333 45.6575 9.418C45.6575 9.614 45.5315 9.852 45.2795 10.132C45.0368 10.4027 44.6962 10.6407 44.2575 10.846C43.8188 11.042 43.3242 11.14 42.7735 11.14ZM45.0135 6.926V6.87C45.0135 6.15133 44.8082 5.55867 44.3975 5.092C43.9962 4.62533 43.4548 4.392 42.7735 4.392C42.0922 4.392 41.5508 4.62533 41.1495 5.092C40.7575 5.55867 40.5615 6.15133 40.5615 6.87V6.926H45.0135ZM50.3461 11.14C49.3381 11.14 48.5914 10.8133 48.1061 10.16C47.6301 9.49733 47.3781 8.69467 47.3501 7.752L47.3361 7.36L47.3501 6.968C47.3781 6.02533 47.6301 5.22733 48.1061 4.574C48.5914 3.91133 49.3381 3.58 50.3461 3.58C51.3634 3.58 52.1474 3.94867 52.6981 4.686V1.368C52.6981 1.27467 52.7261 1.2 52.7821 1.144C52.8381 1.088 52.9127 1.06 53.0061 1.06H53.2441C53.3374 1.06 53.4121 1.088 53.4681 1.144C53.5241 1.2 53.5521 1.27467 53.5521 1.368V10.692C53.5521 10.7853 53.5241 10.86 53.4681 10.916C53.4121 10.972 53.3374 11 53.2441 11H53.0061C52.9127 11 52.8381 10.972 52.7821 10.916C52.7261 10.86 52.6981 10.7853 52.6981 10.692V10.034C52.1567 10.7713 51.3727 11.14 50.3461 11.14ZM50.4301 10.328C51.1674 10.328 51.7227 10.0853 52.0961 9.6C52.4694 9.10533 52.6701 8.52667 52.6981 7.864C52.7074 7.77067 52.7121 7.58867 52.7121 7.318C52.7121 7.04733 52.7074 6.86533 52.6981 6.772C52.6887 6.37067 52.6001 5.99267 52.4321 5.638C52.2641 5.274 52.0121 4.97533 51.6761 4.742C51.3401 4.50867 50.9247 4.392 50.4301 4.392C49.6741 4.392 49.1187 4.63467 48.7641 5.12C48.4187 5.596 48.2321 6.212 48.2041 6.968L48.1901 7.36C48.1901 8.228 48.3581 8.942 48.6941 9.502C49.0301 10.0527 49.6087 10.328 50.4301 10.328ZM62.6645 11.14C61.6379 11.14 60.8539 10.7713 60.3125 10.034V10.692C60.3125 10.7853 60.2845 10.86 60.2285 10.916C60.1725 10.972 60.0979 11 60.0045 11H59.7665C59.6732 11 59.5985 10.972 59.5425 10.916C59.4865 10.86 59.4585 10.7853 59.4585 10.692V1.368C59.4585 1.27467 59.4865 1.2 59.5425 1.144C59.5985 1.088 59.6732 1.06 59.7665 1.06H60.0045C60.0979 1.06 60.1725 1.088 60.2285 1.144C60.2845 1.2 60.3125 1.27467 60.3125 1.368V4.686C60.8632 3.94867 61.6472 3.58 62.6645 3.58C63.6725 3.58 64.4145 3.91133 64.8905 4.574C65.3759 5.22733 65.6325 6.02533 65.6605 6.968C65.6699 7.06133 65.6745 7.192 65.6745 7.36C65.6745 7.528 65.6699 7.65867 65.6605 7.752C65.6325 8.69467 65.3759 9.49733 64.8905 10.16C64.4145 10.8133 63.6725 11.14 62.6645 11.14ZM62.5805 10.328C63.3365 10.328 63.8872 10.09 64.2325 9.614C64.5872 9.12867 64.7785 8.508 64.8065 7.752C64.8159 7.65867 64.8205 7.528 64.8205 7.36C64.8205 6.492 64.6525 5.78267 64.3165 5.232C63.9805 4.672 63.4019 4.392 62.5805 4.392C62.0859 4.392 61.6705 4.50867 61.3345 4.742C60.9985 4.97533 60.7465 5.274 60.5785 5.638C60.4105 5.99267 60.3219 6.37067 60.3125 6.772L60.2985 7.318L60.3125 7.864C60.3405 8.52667 60.5412 9.10533 60.9145 9.6C61.2879 10.0853 61.8432 10.328 62.5805 10.328ZM68.5379 13.66C68.4632 13.66 68.3979 13.632 68.3419 13.576C68.2859 13.52 68.2579 13.4547 68.2579 13.38C68.2579 13.3333 68.2859 13.24 68.3419 13.1L69.4199 10.58L66.7459 4.28C66.6899 4.14 66.6619 4.04667 66.6619 4C66.6619 3.92533 66.6899 3.86 66.7459 3.804C66.8019 3.748 66.8672 3.72 66.9419 3.72H67.2359C67.3852 3.72 67.4925 3.79 67.5579 3.93L69.9099 9.474L72.3179 3.93C72.3925 3.79 72.4999 3.72 72.6399 3.72H72.9199C72.9945 3.72 73.0599 3.748 73.1159 3.804C73.1719 3.86 73.1999 3.92533 73.1999 4C73.1999 4.04667 73.1719 4.14 73.1159 4.28L69.1399 13.45C69.0745 13.59 68.9672 13.66 68.8179 13.66H68.5379Z" fill="#C8C0FF"/>
</svg>
