<svg width="24" height="16" viewBox="0 0 24 16" fill="none" xmlns="http://www.w3.org/2000/svg">
<path d="M23.0742 0.615861C22.511 0.381486 21.8672 0.511125 21.4395 0.941057C20.967 1.41338 20.3789 2.00151 18 2.00151C15.8577 2.00151 14.2419 3.27583 13.062 4.20591C12.7295 4.46812 12.2461 4.84898 12.0579 4.96836C11.8696 4.83433 11.5583 4.52818 11.3401 4.31358C10.4026 3.39302 8.98608 2.00151 6.75 2.00151C4.28028 2.00151 2.95459 1.3351 2.56054 0.941054C2.12988 0.511122 1.48535 0.381483 0.925782 0.615858C0.365479 0.848036 0 1.39506 0 2.00151C0 6.20305 0.665772 11.9361 6.42334 13.2163C8.77075 13.7377 9.62183 14.3609 10.1843 14.7739C10.626 15.0977 11.176 15.5005 12 15.5005C12.824 15.5005 13.374 15.0969 13.8157 14.7732C14.3782 14.3609 15.2292 13.7369 17.5759 13.2155C23.3342 11.9368 24 6.20304 24 2.00151C24 1.39507 23.6345 0.848039 23.0742 0.615861H23.0742ZM4.50001 6.59563C4.50001 6.59563 7.91896 6.06462 9.49998 7.50932C10.5 8.42302 10.5 9.33662 10.5 10.2503C4.50001 10.2503 4.50001 6.59563 4.50001 6.59563L4.50001 6.59563ZM13.5 10.2503C13.5 9.33662 13.5 8.42302 14.5 7.50932C16.0811 6.06462 19.5 6.59562 19.5 6.59562C19.5 6.59562 19.5 10.2503 13.5 10.2503L13.5 10.2503Z" fill="#E0E0E0"/>
</svg>
