<svg width="17" height="34" viewBox="0 0 17 34" fill="none" xmlns="http://www.w3.org/2000/svg">
<path d="M14.75 8V25.25C14.75 28.565 12.065 31.25 8.75 31.25C5.435 31.25 2.75 28.565 2.75 25.25V6.5C2.75 4.43 4.43 2.75 6.5 2.75C8.57 2.75 10.25 4.43 10.25 6.5V22.25C10.25 23.075 9.575 23.75 8.75 23.75C7.925 23.75 7.25 23.075 7.25 22.25V8H5V22.25C5 24.32 6.68 26 8.75 26C10.82 26 12.5 24.32 12.5 22.25V6.5C12.5 3.185 9.815 0.5 6.5 0.5C3.185 0.5 0.5 3.185 0.5 6.5V25.25C0.5 29.81 4.19 33.5 8.75 33.5C13.31 33.5 17 29.81 17 25.25V8H14.75Z" fill="#BDBDBD"/>
</svg>
