<svg width="24" height="24" viewBox="0 0 24 24" fill="none" xmlns="http://www.w3.org/2000/svg">
<path d="M1.19995 4.8C1.19995 3.48 2.27995 2.4 3.59995 2.4H20.3999C21.0365 2.4 21.6469 2.65286 22.097 3.10294C22.5471 3.55303 22.7999 4.16348 22.7999 4.8V21.6C22.7999 22.2365 22.5471 22.847 22.097 23.2971C21.6469 23.7471 21.0365 24 20.3999 24H3.59995C2.96343 24 2.35298 23.7471 1.90289 23.2971C1.45281 22.847 1.19995 22.2365 1.19995 21.6V4.8ZM3.59995 7.2V21.6H20.3999V7.2H3.59995ZM5.99995 0H8.39995V2.4H5.99995V0ZM15.5999 0H17.9999V2.4H15.5999V0ZM5.99995 10.8H8.39995V13.2H5.99995V10.8ZM5.99995 15.6H8.39995V18H5.99995V15.6ZM10.7999 10.8H13.1999V13.2H10.7999V10.8ZM10.7999 15.6H13.1999V18H10.7999V15.6ZM15.5999 10.8H17.9999V13.2H15.5999V10.8ZM15.5999 15.6H17.9999V18H15.5999V15.6Z"/>
</svg>
