<svg width="12" height="12" viewBox="0 0 12 12" fill="none" xmlns="http://www.w3.org/2000/svg">
<path d="M8.67783 3.42163L4.83366 7.26579L2.73949 5.17746L1.91699 5.99996L4.83366 8.91663L9.50033 4.24996L8.67783 3.42163ZM6.00033 0.166626C2.78033 0.166626 0.166992 2.77996 0.166992 5.99996C0.166992 9.21996 2.78033 11.8333 6.00033 11.8333C9.22033 11.8333 11.8337 9.21996 11.8337 5.99996C11.8337 2.77996 9.22033 0.166626 6.00033 0.166626ZM6.00033 10.6666C3.42199 10.6666 1.33366 8.57829 1.33366 5.99996C1.33366 3.42163 3.42199 1.33329 6.00033 1.33329C8.57866 1.33329 10.667 3.42163 10.667 5.99996C10.667 8.57829 8.57866 10.6666 6.00033 10.6666Z" fill="#E0E0E0"/>
</svg>
