<!-- <svg width="60" height="54" viewBox="0 0 60 54" fill="none" xmlns="http://www.w3.org/2000/svg">
<path d="M39 24V42H21V24H6L30 0L54 24H39ZM0 48H60V54H0V48Z" fill="#BDBDBD"/>
</svg> -->
<svg width="24" height="17" viewBox="0 0 24 17" fill="none" xmlns="http://www.w3.org/2000/svg">
<path d="M19.35 6.44794C18.67 3.02989 15.64 0.463867 12 0.463867C9.11 0.463867 6.6 2.08868 5.35 4.46646C2.34 4.7835 0 7.30989 0 10.3713C0 13.6506 2.69 16.3157 6 16.3157H19C21.76 16.3157 24 14.0965 24 11.362C24 8.74646 21.95 6.62627 19.35 6.44794ZM14 9.38053V13.3435H10V9.38053H7L12 4.42683L17 9.38053H14Z" fill="#C7D2E6"/>
</svg>
