<svg width="14" height="20" viewBox="0 0 14 20" fill="none" xmlns="http://www.w3.org/2000/svg">
<path d="M4 13.3282C2.56403 12.6469 1.4026 11.497 0.706698 10.0677C0.0107973 8.63848 -0.17814 7.01488 0.170956 5.46394C0.520052 3.913 1.3864 2.52706 2.62752 1.53403C3.86865 0.540998 5.41067 0 7 0C8.58933 0 10.1313 0.540998 11.3725 1.53403C12.6136 2.52706 13.4799 3.913 13.829 5.46394C14.1781 7.01488 13.9892 8.63848 13.2933 10.0677C12.5974 11.497 11.436 12.6469 10 13.3282V15.9989H4V13.3282ZM4 16.9992H10V18.4996C10 19.3298 9.33 20 8.5 20H5.5C5.10218 20 4.72065 19.8419 4.43934 19.5605C4.15804 19.2792 4 18.8975 4 18.4996V16.9992ZM6 11.8978V13.9984H8V11.8978C9.21404 11.6499 10.2928 10.96 11.0272 9.96168C11.7616 8.96341 12.0992 7.72794 11.9747 6.4948C11.8501 5.26166 11.2723 4.1187 10.3531 3.28751C9.43401 2.45632 8.23908 1.99612 7 1.99612C5.76092 1.99612 4.56599 2.45632 3.64685 3.28751C2.72771 4.1187 2.14986 5.26166 2.02532 6.4948C1.90079 7.72794 2.23843 8.96341 2.97281 9.96168C3.70718 10.96 4.78596 11.6499 6 11.8978Z" fill="#FFC100"/>
</svg>
