<svg width="14" height="14" viewBox="0 0 14 14" fill="none" xmlns="http://www.w3.org/2000/svg">
<path d="M8.29759 9.72281L8.29759 12.9359L13.6237 7.58074L8.29759 2.22556L8.29759 5.43867C8.29759 5.43867 3.5678 6.58331 0.337098 1.15452C0.337098 1.15452 -0.468312 5.29785 3.14003 8.30027C3.14003 8.30054 4.77459 9.82895 8.29759 9.72281Z" fill="#BDBDBD"/>
<path d="M0.208821 0.417648L0.0754744 1.10385C0.0672069 1.14678 -0.717668 5.43759 2.96962 8.50535C3.02349 8.55629 4.6007 9.99483 7.94982 9.99483C7.97703 9.99483 8.00396 9.99483 8.03116 9.99456L8.03116 13.5824L14 7.58073L8.0309 1.57909L8.0309 5.21597C7.85435 5.24211 7.57085 5.27278 7.21189 5.27278C5.67547 5.27278 2.7696 4.71992 0.566455 1.01824L0.208821 0.417648ZM7.94956 9.46144C4.80899 9.46144 3.33658 8.11918 3.32192 8.10558C0.776341 5.98698 0.500848 3.25925 0.534451 1.95913C3.83103 6.77505 8.30132 5.71202 8.36026 5.69789L8.56428 5.64855L8.56428 2.87201L13.2477 7.58073L8.56428 12.2897L8.56428 9.44838L8.28959 9.45638C8.17411 9.45984 8.06103 9.46144 7.94956 9.46144Z" fill="#BDBDBD"/>
</svg>
