<svg width="14" height="14" viewBox="0 0 14 14" fill="none" xmlns="http://www.w3.org/2000/svg">
<path d="M5.70253 9.72281L5.70253 12.9359L0.376427 7.58073L5.70254 2.22556L5.70254 5.43866C5.70254 5.43866 10.4323 6.58331 13.663 1.15452C13.663 1.15452 14.4684 5.29785 10.8601 8.30027C10.8601 8.30054 9.22554 9.82895 5.70253 9.72281Z" fill="#BDBDBD"/>
<path d="M13.7912 0.417648L13.9246 1.10385C13.9329 1.14678 14.7177 5.43759 11.0304 8.50535C10.9766 8.55629 9.39936 9.99483 6.05024 9.99482C6.02304 9.99482 5.9961 9.99482 5.9689 9.99456L5.9689 13.5824L6.15598e-05 7.58073L5.96916 1.57909L5.96916 5.21597C6.14571 5.24211 6.42921 5.27278 6.78818 5.27278C8.32459 5.27278 11.2305 4.71992 13.4336 1.01824L13.7912 0.417648ZM6.0505 9.46144C9.19107 9.46144 10.6635 8.11918 10.6781 8.10558C13.2237 5.98698 13.4992 3.25925 13.4656 1.95913C10.169 6.77505 5.69874 5.71202 5.6398 5.69788L5.43578 5.64854L5.43578 2.87201L0.7524 7.58073L5.43578 12.2897L5.43578 9.44837L5.71047 9.45637C5.82595 9.45984 5.93903 9.46144 6.0505 9.46144Z" fill="#BDBDBD"/>
</svg>
