<svg width="24" height="24" viewBox="0 0 24 24" fill="none" xmlns="http://www.w3.org/2000/svg">
<path d="M3.94534 13.1885C5.47835 10.9815 6.3801 9.55971 7.03756 8.50897C4.51093 8.73246 2.08911 11.8767 2.08911 11.8767L3.75682 13.5446C3.80521 13.4212 3.867 13.3015 3.94534 13.1885Z" fill="#BDBDBD"/>
<path d="M10.4574 20.2454L12.124 21.9121C12.124 21.9121 15.2678 19.4902 15.4913 16.9634C14.441 17.6207 13.0198 18.5222 10.8124 20.0558C10.7007 20.1333 10.5817 20.1965 10.4574 20.2454Z" fill="#BDBDBD"/>
<path d="M7.92293 19.3836C7.63684 19.4993 7.35567 19.6221 7.06252 19.7201C6.27955 19.9818 5.47317 20.1587 4.65559 20.2715C4.31288 20.3188 3.96701 20.3589 3.62056 20.3852C3.62386 20.3424 3.62703 20.2996 3.63065 20.2569C3.70214 19.4237 3.82888 18.5949 4.03365 17.7837C4.13231 17.3921 4.25821 17.0116 4.39337 16.6315C4.47741 16.3952 4.58228 16.169 4.68806 15.9429L4.50471 15.7596C4.09692 16.0336 3.74225 16.3798 3.44128 16.7714C2.99571 17.3514 2.66174 18.0084 2.42825 18.7007C2.17742 19.4441 2.02784 20.2315 2.00455 21.0163C2.00125 21.1266 1.99368 21.2392 2.01076 21.3486C2.03275 21.49 2.0948 21.6237 2.18803 21.7321C2.28029 21.8393 2.40172 21.9203 2.53629 21.9637C2.64925 22.0001 2.76286 22.0007 2.88003 21.9998C3.59248 21.9939 4.31599 21.8701 4.99796 21.6675C6.24527 21.2968 7.50447 20.5996 8.24254 19.4978L8.0641 19.3194C8.01733 19.3414 7.97042 19.363 7.92293 19.3836Z" fill="#BDBDBD"/>
<path d="M21.7976 2.20259C21.7976 2.20259 21.7975 2.20253 21.7974 2.2024C21.6676 2.07266 21.4917 2 21.3086 2C21.3041 2 21.2995 2.00006 21.2949 2.00013C19.0687 2.04381 13.5761 2.46025 10.6591 5.37765C9.33498 6.70197 8.90461 7.39133 7.96133 8.90206C7.282 9.98975 6.35198 11.4796 4.65225 13.9263C4.46133 14.2013 4.49452 14.5736 4.73125 14.8102L9.19071 19.2702C9.3245 19.4041 9.50171 19.4729 9.68008 19.4729C9.81717 19.4729 9.95491 19.4323 10.0745 19.3493C12.5218 17.649 14.0109 16.719 15.0981 16.0399C16.6085 15.0966 17.2979 14.666 18.6224 13.3416C21.5445 10.419 21.958 4.92938 21.9999 2.70476C22.0036 2.51693 21.9305 2.33562 21.7976 2.20259ZM16.6337 10.6179C15.7359 11.5157 14.2805 11.5157 13.3826 10.6179C12.4847 9.71999 12.4848 8.26446 13.3828 7.36662C14.2804 6.46871 15.7359 6.46858 16.6337 7.36642C17.5312 8.26427 17.5314 9.72012 16.6337 10.6179Z" fill="#BDBDBD"/>
</svg>
