<svg width="24" height="24" viewBox="0 0 24 24" fill="none" xmlns="http://www.w3.org/2000/svg">
<path d="M20.7478 11.4609C20.5695 10.593 20.149 8.69212 19.5246 6.76566C19.0264 5.22811 18.4988 3.99169 17.9565 3.0908C17.1435 1.73972 16.2276 1.05469 15.2344 1.05469C14.4362 1.05469 13.4513 1.53234 12.226 2.51363C11.5282 1.96753 10.1602 1.05469 8.8125 1.05469C7.14952 1.05469 5.77908 2.87602 4.49958 6.78661C3.87633 8.69147 3.45075 10.5712 3.26377 11.4609H0V13.3359H24V11.4609H20.7478ZM5.18236 11.4609C5.39044 10.5162 5.76886 8.93686 6.28167 7.36964C7.43072 3.85763 8.43961 2.92969 8.8125 2.92969C9.40059 2.92969 10.1901 3.35522 10.7996 3.78769C10.6933 3.89269 10.6302 3.95798 10.6221 3.96642L9.9713 4.64128L11.321 5.94281L11.9717 5.26795C11.9777 5.26181 12.5736 4.64578 13.3291 4.03261C14.6499 2.96062 15.1785 2.92969 15.2344 2.92969C15.6057 2.92969 16.6065 3.84905 17.736 7.32862C18.2515 8.91628 18.6285 10.5227 18.8309 11.4609H5.18236Z" fill="#C7D2E6"/>
<path d="M16.8281 14.6953C15.394 14.6953 14.1287 15.4312 13.3893 16.5449L11.8177 15.7591L10.1578 16.5688C9.42066 15.4417 8.14748 14.6953 6.70312 14.6953C4.42861 14.6953 2.57812 16.5458 2.57812 18.8203C2.57812 21.0948 4.42861 22.9453 6.70312 22.9453C8.97764 22.9453 10.8281 21.0948 10.8281 18.8203C10.8281 18.6584 10.8184 18.4987 10.8002 18.3416L11.8073 17.8503L12.7342 18.3137C12.7138 18.4798 12.7031 18.6488 12.7031 18.8203C12.7031 21.0948 14.5536 22.9453 16.8281 22.9453C19.1026 22.9453 20.9531 21.0948 20.9531 18.8203C20.9531 16.5458 19.1026 14.6953 16.8281 14.6953ZM6.70312 21.0703C5.46248 21.0703 4.45312 20.061 4.45312 18.8203C4.45312 17.5797 5.46248 16.5703 6.70312 16.5703C7.94377 16.5703 8.95312 17.5797 8.95312 18.8203C8.95312 20.061 7.94377 21.0703 6.70312 21.0703ZM16.8281 21.0703C15.5875 21.0703 14.5781 20.061 14.5781 18.8203C14.5781 17.5797 15.5875 16.5703 16.8281 16.5703C18.0688 16.5703 19.0781 17.5797 19.0781 18.8203C19.0781 20.061 18.0688 21.0703 16.8281 21.0703Z" fill="#C7D2E6"/>
</svg>
